<svg xmlns="http://www.w3.org/2000/svg" width="140" height="40" fill="#000" fill-rule="evenodd" xmlns:v="https://vecta.io/nano"><path d="M3.003 28.54H.005V.028h2.958V13.4l.606-.542L14.707.217c.08-.1.2-.204.304-.206l3.006-.01L5.625 12.8l12.708 15.77c-1.036 0-1.984-.057-2.922.018-.8.063-1.26-.228-1.737-.86L3.516 14.48c-.13-.17-.284-.318-.5-.57l-.003 14.63zm34.49-10.477V28.47h-2.4V7.123h.425l5.797.01c1.664.035 3.276.336 4.596 1.485 1.1.958 1.5 2.223 1.417 3.647-.133 2.623-1.72 4.086-3.962 5-.596.24-1.224.4-1.886.6l7.546 10.637h-.743c-.692 0-1.384-.016-2.077.006-.3.01-.46-.106-.618-.353-2.13-3.313-4.334-6.573-6.72-9.707-.398-.52-.84-.354-1.364-.387zm.02-9.877v8.752c1.433.092 2.835.04 4.2-.38 1.8-.55 2.928-1.7 3.105-3.656.2-2.217-.56-4.014-3.012-4.424-1.392-.234-2.827-.204-4.292-.293zm30.106 20.316c-.885 0-1.735.014-2.58-.016-.115-.004-.27-.224-.324-.373l-2.636-7.484c-.145-.42-.322-.577-.783-.57l-5.795.006c-.352-.002-.52.1-.648.444l-2.7 7.458c-.16.448-.366.583-.8.546-.413-.037-.83-.008-1.318-.008l.143-.438 8.363-21.07c.088-.226.185-.353.46-.344.256.008.376.084.47.328l8.053 21.145c.038.102.062.214.107.377zm-12.136-9.756h5.9l-2.966-7.977-2.944 7.977zm57.648 9.756c-.897 0-1.732.016-2.565-.018-.13-.006-.3-.22-.367-.377l-2.684-7.605c-.115-.33-.254-.446-.608-.442a264.84 264.84 0 0 1-5.966-.002c-.363-.004-.493.134-.606.446l-2.775 7.62c-.1.3-.25.4-.553.385l-1.517-.006.8-2.046 7.687-19.364c.095-.24.153-.46.52-.452.35.008.393.222.48.446l8.156 21.416zm-9.224-17.736l-2.94 7.973h5.904l-2.964-7.973zm-34.458 14.5l1.5 1.373c1.43 1.106 3.026 1.508 4.797 1.06 2.364-.6 3.294-2.792 3.07-4.772-.16-1.42-.9-2.465-2.12-3.105l-4.216-2-.737-.363c-1.407-.697-2.244-1.832-2.52-3.4-.328-1.848-.08-3.582 1.117-5.078 1.044-1.304 2.473-1.915 4.077-2.14 1.668-.234 3.264.082 4.813.703.276.1.397.257.382.577l-.008 2.117-1.24-1.14C77.1 8.08 75.696 7.6 74.068 7.958c-1.83.4-3.022 2.144-2.8 4.04.147 1.26.718 2.268 1.807 2.87 1.044.577 2.16 1.017 3.244 1.518l2.266 1.068c1.38.766 2.262 1.94 2.48 3.535.326 2.374-.23 4.493-1.974 6.194-1.1 1.072-2.46 1.596-3.956 1.77-1.837.212-3.616.014-5.3-.825-.278-.14-.407-.3-.394-.634l.008-2.227zm55.78-15.052c-.817-.933-1.632-1.67-2.672-2.1-1.465-.6-2.9-.575-4.242.346-1.65 1.143-2.22 4.536.157 6.135.83.558 1.787.92 2.7 1.347l2.5 1.098c2.26 1.066 3.278 2.904 3.115 5.388s-1.228 4.442-3.45 5.638c-1.542.83-3.216.952-4.92.797-.996-.1-1.944-.373-2.854-.805-.324-.153-.477-.33-.457-.717l.01-2.14 1.6 1.418c1.44 1.074 3.05 1.428 4.784.933 1.698-.485 2.674-1.685 2.926-3.425.253-1.752-.228-3.285-1.8-4.224-1.097-.656-2.293-1.143-3.446-1.7l-1.5-.693c-2.024-.907-2.908-2.54-2.954-4.717-.078-3.615 2.347-5.667 5.355-6.06 1.66-.216 3.232.104 4.773.7.294.116.38.275.37.583l-.01 2.178zM29.944 16.45v1.363h-.527c-1.932 0-3.864.008-5.798-.008-.352-.002-.47.1-.47.462V26.5c-.002.365.105.47.463.467l7.1-.008v1.416h-9.985V7.15h9.8v1.42h-7.353l-.028.516-.01 6.877c-.002.38.093.5.48.495l6.317-.006zm110.054 10.493v1.44h-9.985V7.16h9.816v1.422h-7.375v7.863h6.747v1.367h-6.76v9.13h7.556zM88.412 8.496h-6.07V7.14h14.306v1.34h-5.773v20.06h-2.46l-.002-20.044zM70.762 36.82l2.187 3.093c-.608.14-1.006.035-1.336-.542-.46-.803-1.044-1.532-1.592-2.282-.083-.112-.242-.167-.366-.247-.04.143-.113.285-.115.428l-.006 2.684h-.696v-6.43l2.45.126c.7.096 1.095.534 1.17 1.105.095.733-.165 1.308-.785 1.657-.27.153-.567.257-.9.407zm-1.226-2.873v1.608c0 1.062.1 1.135 1.12.872a1.91 1.91 0 0 0 .443-.169c.457-.244.708-.758.642-1.284-.076-.6-.34-.92-.954-1.015-.4-.06-.797-.012-1.25-.012zM23.202 5.32l1.827-2.06L27.575.463c.497-.524 1.075-.528 1.46-.082.427.495.352 1.243-.197 1.653L26.86 3.438l-2.226 1.577c-.423.328-.86.36-1.433.304zM65.12 39.915c-.763.165-.807.14-1.04-.528l-.555-1.608c-.078-.24-.2-.357-.46-.344H61.68c-.27-.012-.382.106-.463.342l-.644 1.807c-.12.37-.318.487-.72.338l2.594-6.53.17-.018 2.503 6.54zm-2.757-5.255l-.86 2.364h1.74l-.88-2.364zm-7.535 5.3l-.326.03c-.115 0-.227-.01-.378-.016v-6.406c.9.053 1.84-.15 2.747.17.5.175.817.52.88 1.078.075.656-.12 1.237-.694 1.524-.513.255-1.107.346-1.672.487-.16.04-.338.006-.557.006l.002 3.128zm.014-6.048v2.6c.734.004 1.457.045 1.948-.6a1.22 1.22 0 0 0 .083-1.404c-.473-.8-1.284-.532-2.03-.587zm28.83.295c-.266-.16-.52-.355-.8-.477-.612-.263-1.266-.022-1.515.52-.278.607-.076 1.225.545 1.553.368.196.763.336 1.145.505.9.4 1.268.994 1.155 1.87-.12.95-.8 1.67-1.7 1.77-.368.04-.755.035-1.115-.035-.7-.136-.722-.18-.672-1.007l.435.363c.892.687 2.047.393 2.32-.6.16-.57-.036-1.115-.566-1.422-.396-.23-.827-.405-1.244-.603-.87-.416-1.222-1.052-1.05-1.915.17-.852.855-1.4 1.775-1.42.27-.004.547.026.8.084.567.122.598.2.475.805zm-6.553 5.76h-.654v-6.392h.654v6.392z"/></svg>