<?xml version="1.0" standalone="no"?>
<!DOCTYPE svg PUBLIC "-//W3C//DTD SVG 20010904//EN"
 "http://www.w3.org/TR/2001/REC-SVG-20010904/DTD/svg10.dtd">
<svg version="1.0" xmlns="http://www.w3.org/2000/svg"
 width="700.000000pt" height="700.000000pt" viewBox="0 0 700.000000 700.000000"
 preserveAspectRatio="xMidYMid meet">
<metadata>
Created by potrace 1.11, written by Peter Selinger 2001-2013
</metadata>
<g transform="translate(0.000000,700.000000) scale(0.100000,-0.100000)"
fill="#000000" stroke="none">
<path d="M2067 6653 c-3 -4 -123 -8 -266 -8 l-261 1 -1 -86 c0 -142 -1 -6068
0 -6173 l1 -97 333 2 c317 3 332 4 329 22 -2 12 1 16 9 10 8 -5 10 -3 3 7 -4
8 -8 369 -9 804 0 690 2 792 15 803 12 10 13 12 1 10 -12 -3 -15 25 -15 164
-1 96 3 164 8 160 5 -3 6 1 1 9 -11 17 -13 229 -2 229 5 0 5 5 1 12 -10 16
-11 129 -1 151 4 9 4 17 0 17 -4 0 -8 14 -8 30 0 17 4 30 8 30 5 0 5 5 1 12
-12 18 -11 58 1 58 6 0 7 3 0 8 -14 10 -13 163 0 158 6 -2 11 5 11 15 0 11 -4
15 -11 9 -6 -5 -10 3 -10 26 0 20 4 33 11 30 6 -2 11 2 11 10 0 7 -4 11 -8 9
-4 -3 -10 2 -13 11 -4 12 -2 15 9 10 12 -4 12 -1 -2 21 -17 26 -17 27 0 20 16
-6 16 -5 1 18 -13 20 -14 25 -3 25 11 0 11 2 -1 10 -8 5 -10 10 -4 10 6 0 9
13 6 31 -3 20 0 34 9 40 11 7 11 9 -2 9 -21 0 -20 30 1 48 11 10 12 12 1 6
-11 -5 -13 -3 -8 9 4 10 1 17 -6 17 -8 0 -6 4 3 10 20 13 33 13 25 0 -3 -5 -4
-10 -1 -10 3 0 10 9 16 20 10 18 9 19 -15 10 -15 -6 -27 -10 -29 -10 -1 0 -2
9 -2 20 0 18 13 25 43 21 6 -1 14 3 18 9 4 6 -1 7 -11 3 -13 -5 -15 -3 -9 8 6
11 5 12 -6 1 -7 -6 -20 -12 -28 -12 -11 0 -10 4 5 16 10 8 13 13 7 9 -9 -4
-13 2 -14 17 0 13 -2 31 -4 41 -3 17 5 16 33 -6 10 -8 10 -13 0 -25 -11 -13
-11 -14 0 -8 17 10 76 -50 66 -66 -4 -6 -2 -8 4 -4 16 10 27 -15 11 -26 -10
-6 -7 -7 10 -3 21 6 23 4 19 -13 -4 -14 -2 -19 7 -15 8 2 19 -6 26 -18 14 -27
27 -44 52 -67 9 -9 17 -22 17 -29 0 -7 5 -13 12 -13 6 0 9 -2 6 -5 -3 -3 6
-18 21 -34 14 -15 33 -36 41 -47 8 -10 25 -32 37 -48 13 -15 20 -32 17 -37 -3
-5 1 -9 8 -9 7 0 46 -45 87 -100 41 -55 82 -108 93 -119 10 -11 18 -23 18 -26
0 -4 7 -13 15 -22 8 -8 13 -19 10 -24 -4 -5 0 -9 9 -9 17 0 60 -65 52 -79 -4
-5 -1 -13 5 -17 8 -4 9 -3 5 4 -4 7 -2 12 4 12 6 0 14 -8 17 -17 4 -9 14 -24
22 -34 18 -19 22 -25 65 -84 17 -22 34 -43 39 -46 5 -4 6 -12 3 -18 -5 -7 -2
-10 6 -9 7 2 12 -5 12 -14 -1 -10 2 -16 6 -13 11 7 43 -32 36 -44 -4 -5 -1
-13 5 -17 8 -5 10 -2 5 7 -4 8 4 1 18 -16 27 -31 34 -51 14 -39 -7 4 -8 3 -4
-4 4 -6 12 -9 19 -7 7 3 32 -24 57 -60 25 -35 48 -64 53 -65 4 0 7 -4 7 -10 0
-5 9 -19 20 -30 12 -12 18 -26 14 -32 -4 -7 -3 -8 4 -4 7 4 17 -3 24 -18 6
-14 16 -26 21 -26 6 0 8 -2 5 -5 -3 -3 12 -25 33 -48 22 -23 37 -48 34 -55 -3
-7 -1 -11 4 -8 13 8 63 -62 55 -76 -4 -6 -3 -8 3 -5 5 3 17 -3 26 -14 20 -22
22 -33 5 -23 -7 4 -8 3 -4 -5 4 -6 11 -9 16 -6 5 3 17 -7 27 -22 10 -15 20
-30 23 -33 4 -3 26 -32 51 -65 24 -33 47 -61 52 -63 4 -2 7 -10 7 -17 0 -7 7
-15 15 -19 8 -3 15 -10 15 -16 0 -6 -4 -9 -9 -5 -5 3 -12 1 -15 -4 -3 -4 2 -8
12 -7 9 0 19 -3 21 -9 3 -5 15 -18 28 -28 13 -10 23 -22 23 -27 0 -5 10 -20
23 -34 26 -28 34 -39 67 -86 13 -19 35 -46 47 -60 13 -14 23 -28 23 -32 0 -4
9 -16 21 -27 13 -12 18 -25 13 -33 -4 -7 -4 -10 1 -6 8 8 18 -1 57 -54 16 -20
26 -43 25 -50 -2 -7 -2 -9 1 -5 5 9 42 -21 42 -34 0 -4 10 -19 23 -33 41 -45
48 -56 41 -68 -4 -6 -3 -8 3 -5 8 5 62 -53 55 -60 -1 -2 10 -14 23 -29 14 -15
22 -31 18 -37 -3 -6 -1 -7 6 -3 6 4 14 0 18 -9 3 -9 19 -31 34 -48 31 -33 36
-47 18 -47 -5 0 -7 -5 -3 -11 5 -8 8 -8 14 0 5 9 10 8 20 -4 7 -8 9 -15 4 -15
-5 0 2 -7 14 -16 12 -8 22 -22 22 -30 0 -8 4 -13 9 -10 5 3 11 -1 15 -9 3 -8
33 -50 66 -95 36 -46 58 -85 54 -91 -4 -7 -3 -9 3 -6 11 7 83 -68 83 -85 0 -5
4 -7 9 -4 4 3 17 -4 27 -15 11 -12 29 -25 41 -30 16 -6 21 -14 17 -26 -5 -14
-4 -15 4 -4 8 12 16 11 51 -6 22 -11 38 -16 35 -11 -3 5 7 6 23 3 45 -10 76
-11 105 -3 15 3 30 2 34 -3 3 -6 10 -6 17 -1 7 5 99 10 206 11 158 2 192 0
185 -11 -6 -10 -5 -11 7 -1 9 7 48 11 106 9 73 -2 90 1 82 11 -6 6 -7 18 -3
24 4 7 3 9 -4 5 -6 -3 -20 6 -31 21 -11 16 -24 33 -28 38 -5 6 -39 47 -76 93
-41 49 -65 87 -61 95 4 6 4 9 -1 5 -4 -4 -13 -1 -20 6 -14 14 -139 170 -169
211 -11 14 -30 37 -43 51 -13 14 -20 30 -17 36 4 6 2 8 -3 5 -14 -9 -37 19
-28 33 3 5 0 10 -8 10 -13 0 -64 56 -64 70 0 3 -21 28 -47 55 -25 28 -44 56
-41 62 2 7 -2 13 -9 13 -18 0 -49 47 -36 55 6 3 10 11 10 18 0 6 -6 3 -13 -7
-12 -16 -14 -16 -26 -2 -7 8 -10 20 -6 26 4 6 2 9 -4 8 -5 -2 -37 31 -70 72
-33 41 -68 83 -77 92 -9 9 -13 22 -8 29 4 7 3 10 -3 6 -13 -8 -65 57 -55 68 4
5 2 5 -5 1 -12 -6 -40 31 -35 47 1 4 -3 7 -8 7 -17 0 -60 53 -55 67 2 7 1 12
-4 10 -13 -3 -81 77 -76 90 2 7 0 12 -5 10 -12 -3 -100 104 -94 115 3 4 -2 8
-10 8 -18 0 -39 34 -28 45 4 5 2 5 -4 2 -13 -8 -57 49 -49 63 3 6 -1 7 -9 4
-9 -3 -16 -1 -16 5 0 6 -8 19 -17 29 -38 40 -62 76 -56 85 3 6 1 7 -5 3 -6 -4
-27 16 -50 46 -21 29 -46 59 -55 67 -10 7 -17 19 -17 25 0 6 -9 18 -20 26 -11
8 -20 19 -20 25 0 6 -9 17 -20 25 -11 8 -20 22 -20 32 0 10 -4 17 -9 15 -5 -1
-57 59 -115 133 -59 74 -117 146 -130 160 -12 14 -46 57 -76 95 -30 39 -57 72
-60 75 -18 18 -58 79 -55 84 3 3 2 4 -1 1 -8 -5 -19 6 -64 65 -19 25 -37 47
-40 50 -35 34 -42 50 -29 67 12 16 12 17 -2 6 -17 -14 -21 -11 -89 77 -19 25
-39 50 -45 57 -5 7 -15 18 -20 25 -6 7 -31 38 -58 69 -26 31 -47 60 -47 65 0
5 -9 15 -21 22 -13 8 -19 20 -16 31 3 12 -1 18 -10 17 -9 0 -20 8 -27 18 -6
11 -28 38 -48 60 -21 23 -38 44 -38 49 0 4 -10 18 -22 31 -35 36 -58 65 -58
74 0 4 -9 13 -20 20 -11 7 -20 16 -20 21 0 6 -13 24 -29 42 -24 26 -28 36 -20
51 6 10 15 15 21 12 6 -4 8 -3 5 3 -4 6 2 18 12 27 15 14 20 14 25 4 4 -9 5
-9 4 2 -2 21 12 50 24 50 5 0 6 -5 2 -12 -4 -7 -3 -8 5 -4 6 4 9 11 6 15 -8
13 117 136 134 133 12 -2 13 0 4 6 -9 6 1 21 35 54 26 25 72 72 102 104 30 33
58 58 62 56 5 -1 7 2 6 6 -2 5 17 29 42 54 25 24 62 63 83 87 21 24 42 39 49
35 6 -4 8 -3 4 4 -8 13 134 163 147 155 6 -3 7 -2 4 4 -8 12 77 96 87 86 4 -5
6 -3 4 2 -4 13 37 66 46 58 3 -3 6 -1 6 6 0 6 50 62 110 124 61 61 110 114
110 117 -1 2 4 6 11 9 7 2 9 -1 4 -9 -5 -9 -4 -11 4 -6 6 4 9 11 7 15 -8 13
62 84 75 75 8 -4 10 -3 5 5 -9 14 122 153 136 145 4 -3 5 1 3 9 -3 7 5 19 20
27 14 7 25 17 25 22 0 5 23 33 52 63 38 40 54 52 61 42 6 -8 7 -8 4 4 -6 18
95 124 107 112 4 -4 4 1 0 11 -4 11 -3 17 2 14 5 -3 17 3 27 14 9 10 14 18 11
18 -3 0 2 7 10 16 9 8 20 13 25 9 5 -3 13 0 17 6 4 8 3 9 -4 5 -28 -17 -6 10
74 93 59 61 91 88 103 84 10 -3 12 -2 4 4 -15 11 11 48 27 38 6 -3 9 -3 8 2
-4 15 23 54 34 47 6 -4 8 -3 5 3 -8 13 37 56 48 46 4 -5 5 -3 2 3 -4 6 23 39
58 73 36 34 65 63 65 65 0 2 44 49 98 104 53 55 165 171 247 258 83 86 165
171 183 190 l33 33 -273 3 c-150 2 -306 1 -346 -2 -73 -5 -74 -5 -120 -55
-112 -121 -168 -186 -164 -190 3 -3 -2 -5 -12 -5 -9 0 -15 -4 -12 -8 7 -11
-90 -113 -99 -104 -5 4 -6 2 -2 -4 3 -5 -9 -26 -26 -45 -18 -20 -52 -58 -76
-85 -24 -27 -48 -48 -53 -46 -5 1 -7 -1 -4 -6 8 -13 -54 -83 -66 -76 -7 4 -8
2 -4 -4 4 -6 -10 -29 -31 -51 -21 -22 -47 -51 -58 -64 -84 -100 -119 -136
-128 -130 -6 3 -7 1 -3 -5 4 -7 -7 -27 -26 -47 -18 -19 -51 -56 -73 -82 -22
-25 -55 -62 -72 -80 -18 -19 -33 -36 -33 -38 0 -13 -35 -43 -43 -38 -6 3 -7 1
-4 -4 8 -13 -17 -36 -28 -25 -5 4 -5 2 -1 -5 4 -7 -1 -21 -11 -31 -10 -10 -43
-47 -73 -82 -30 -35 -62 -71 -70 -79 -8 -9 -51 -58 -94 -109 -44 -50 -83 -92
-86 -92 -3 0 -14 -14 -24 -31 -10 -18 -24 -28 -31 -25 -8 3 -12 0 -9 -7 2 -7
-9 -28 -26 -47 -16 -19 -30 -30 -31 -25 0 6 -3 3 -7 -7 -7 -17 -70 -93 -134
-161 -21 -21 -38 -44 -38 -49 0 -6 -6 -8 -14 -5 -7 3 -13 0 -12 -8 1 -11 -82
-112 -151 -183 -13 -12 -23 -24 -23 -26 0 -5 -80 -96 -118 -133 -18 -18 -31
-33 -28 -33 3 0 -7 -12 -21 -27 -14 -16 -29 -27 -34 -25 -5 1 -8 -4 -7 -10 2
-7 -3 -12 -10 -10 -8 1 -11 -2 -8 -7 6 -9 -22 -45 -110 -138 -23 -23 -39 -43
-36 -43 2 0 -1 -7 -8 -15 -7 -8 -17 -12 -24 -8 -6 3 -8 3 -4 -2 10 -10 -11
-37 -23 -29 -5 3 -6 -2 -3 -10 3 -9 -2 -17 -15 -21 -12 -3 -19 -10 -17 -14 6
-9 -36 -47 -47 -43 -5 1 -6 -1 -3 -6 8 -13 -24 -53 -36 -46 -6 4 -8 2 -4 -4 3
-6 -2 -17 -12 -24 -10 -7 -27 -26 -37 -41 -10 -15 -24 -26 -31 -23 -8 3 -11 0
-8 -8 6 -16 -22 -29 -39 -19 -8 4 -7 1 1 -9 10 -13 10 -17 -5 -23 -10 -5 -22
-7 -26 -6 -5 1 -6 -3 -2 -8 3 -6 -5 -15 -17 -22 -19 -9 -21 -9 -10 2 13 14 17
33 5 26 -11 -7 -8 126 2 143 5 9 4 11 -3 6 -9 -5 -9 0 -2 18 7 19 6 26 -2 26
-6 0 -8 3 -4 8 4 4 13 7 19 7 5 0 12 7 14 15 3 11 2 11 -4 3 -13 -18 -28 -2
-28 30 -1 24 6 31 26 29 3 -1 6 6 6 13 0 10 -4 12 -12 5 -18 -15 -25 -1 -14
27 11 29 11 36 1 30 -4 -3 -7 25 -6 61 1 51 4 66 15 64 11 -2 11 0 -1 10 -15
13 -20 71 -7 84 4 4 2 13 -4 21 -9 10 -8 13 1 13 9 0 9 4 2 13 -13 15 -13 29
0 45 6 6 7 12 2 12 -5 0 -9 22 -9 50 0 27 5 50 10 50 7 0 7 3 0 8 -5 4 -10 23
-10 42 0 19 5 38 10 42 7 5 7 8 0 8 -12 0 -13 149 -1 168 4 7 3 12 -2 12 -11
0 -9 51 2 69 4 6 3 11 -2 11 -11 0 -9 51 2 69 4 6 3 11 -2 11 -11 0 -9 51 2
69 4 6 4 11 -1 11 -4 0 -8 49 -8 110 0 60 4 110 9 110 5 0 5 6 0 13 -11 15
-11 38 0 56 6 10 5 12 -2 7 -9 -5 -9 0 -2 18 6 17 6 26 0 26 -12 0 -9 22 5 32
6 5 5 8 -3 8 -10 0 -10 5 -2 20 7 14 7 20 0 20 -12 0 -9 22 5 32 6 5 5 8 -2 8
-7 0 -13 5 -13 11 0 5 5 7 11 3 8 -4 8 -1 2 12 -11 24 -10 104 1 123 7 10 5
12 -3 6 -10 -6 -11 -3 -2 14 7 11 8 21 3 21 -4 0 -8 9 -8 20 0 11 5 20 11 20
6 0 7 3 0 8 -6 4 -10 74 -10 172 0 98 4 168 10 172 7 5 7 8 0 8 -5 0 -10 11
-10 25 0 14 4 25 8 25 5 0 5 6 0 13 -11 18 -10 117 2 117 7 0 7 3 0 8 -15 11
-19 46 -4 36 8 -5 10 -3 4 7 -12 18 -14 69 -3 75 5 3 5 11 1 17 -11 18 -11
147 0 147 6 0 6 5 0 13 -5 6 -8 32 -8 57 l1 46 -51 -1 c-27 -1 -55 3 -62 7 -6
5 -13 5 -16 1z"/>
<path d="M1470 6401 c0 -6 4 -13 10 -16 6 -3 7 1 4 9 -7 18 -14 21 -14 7z"/>
<path d="M5234 6280 c0 -13 4 -16 10 -10 7 7 7 13 0 20 -6 6 -10 3 -10 -10z"/>
<path d="M2239 6113 c-13 -16 -12 -17 4 -4 9 7 17 15 17 17 0 8 -8 3 -21 -13z"/>
<path d="M1470 6080 c0 -5 5 -10 11 -10 5 0 7 5 4 10 -3 6 -8 10 -11 10 -2 0
-4 -4 -4 -10z"/>
<path d="M5155 6011 c-3 -5 -2 -12 3 -15 5 -3 9 1 9 9 0 17 -3 19 -12 6z"/>
<path d="M2276 5998 c3 -5 10 -6 15 -3 13 9 11 12 -6 12 -8 0 -12 -4 -9 -9z"/>
<path d="M1487 5919 c7 -7 15 -10 18 -7 3 3 -2 9 -12 12 -14 6 -15 5 -6 -5z"/>
<path d="M3990 5880 c0 -5 5 -10 11 -10 5 0 7 5 4 10 -3 6 -8 10 -11 10 -2 0
-4 -4 -4 -10z"/>
<path d="M2395 5821 c-3 -5 -2 -12 3 -15 5 -3 9 1 9 9 0 17 -3 19 -12 6z"/>
<path d="M1476 5747 c3 -10 9 -15 12 -12 3 3 0 11 -7 18 -10 9 -11 8 -5 -6z"/>
<path d="M2235 5729 c-4 -6 -5 -12 -2 -15 2 -3 7 2 10 11 7 17 1 20 -8 4z"/>
<path d="M1480 5540 c-12 -7 -10 -9 7 -7 12 0 19 5 17 9 -6 10 -6 10 -24 -2z"/>
<path d="M2219 5548 c-5 -18 -6 -38 -1 -34 7 8 12 36 6 36 -2 0 -4 -1 -5 -2z"/>
<path d="M4447 5479 c7 -7 15 -10 18 -7 3 3 -2 9 -12 12 -14 6 -15 5 -6 -5z"/>
<path d="M2236 5467 c3 -10 9 -15 12 -12 3 3 0 11 -7 18 -10 9 -11 8 -5 -6z"/>
<path d="M4393 5355 c0 -8 4 -12 9 -9 5 3 6 10 3 15 -9 13 -12 11 -12 -6z"/>
<path d="M2256 5322 c-3 -5 1 -9 9 -9 8 0 12 4 9 9 -3 4 -7 8 -9 8 -2 0 -6 -4
-9 -8z"/>
<path d="M3510 5286 c0 -2 7 -7 16 -10 8 -3 12 -2 9 4 -6 10 -25 14 -25 6z"/>
<path d="M4230 5240 c0 -5 5 -10 11 -10 5 0 7 5 4 10 -3 6 -8 10 -11 10 -2 0
-4 -4 -4 -10z"/>
<path d="M1475 5200 c-3 -5 -1 -10 4 -10 6 0 11 5 11 10 0 6 -2 10 -4 10 -3 0
-8 -4 -11 -10z"/>
<path d="M2235 5190 c-4 -6 -11 -7 -17 -4 -7 4 -8 2 -4 -5 6 -9 11 -9 22 0 14
11 18 19 10 19 -3 0 -8 -5 -11 -10z"/>
<path d="M2260 5120 c8 -5 20 -10 25 -10 6 0 3 5 -5 10 -8 5 -19 10 -25 10 -5
0 -3 -5 5 -10z"/>
<path d="M2213 5095 c0 -8 4 -12 9 -9 5 3 6 10 3 15 -9 13 -12 11 -12 -6z"/>
<path d="M3255 5080 c-3 -5 -1 -10 4 -10 6 0 11 5 11 10 0 6 -2 10 -4 10 -3 0
-8 -4 -11 -10z"/>
<path d="M1515 5009 c-4 -6 -5 -12 -2 -15 2 -3 7 2 10 11 7 17 1 20 -8 4z"/>
<path d="M4146 4902 c-3 -5 1 -9 9 -9 8 0 15 4 15 9 0 4 -4 8 -9 8 -6 0 -12
-4 -15 -8z"/>
<path d="M2236 4847 c3 -10 9 -15 12 -12 3 3 0 11 -7 18 -10 9 -11 8 -5 -6z"/>
<path d="M1435 4840 c-3 -5 -1 -10 4 -10 6 0 11 5 11 10 0 6 -2 10 -4 10 -3 0
-8 -4 -11 -10z"/>
<path d="M3996 4833 c-6 -14 -5 -15 5 -6 7 7 10 15 7 18 -3 3 -9 -2 -12 -12z"/>
<path d="M3006 4758 c3 -5 10 -6 15 -3 13 9 11 12 -6 12 -8 0 -12 -4 -9 -9z"/>
<path d="M1513 4715 c0 -8 4 -12 9 -9 5 3 6 10 3 15 -9 13 -12 11 -12 -6z"/>
<path d="M2257 4715 c-4 -8 -3 -16 1 -19 4 -3 9 4 9 15 2 23 -3 25 -10 4z"/>
<path d="M1346 4678 c3 -5 10 -6 15 -3 13 9 11 12 -6 12 -8 0 -12 -4 -9 -9z"/>
<path d="M1493 4665 c0 -8 4 -12 9 -9 5 3 6 10 3 15 -9 13 -12 11 -12 -6z"/>
<path d="M2215 4540 c-3 -5 -1 -10 4 -10 6 0 11 5 11 10 0 6 -2 10 -4 10 -3 0
-8 -4 -11 -10z"/>
<path d="M2240 4500 c-12 -7 -10 -9 7 -7 12 0 19 5 17 9 -6 10 -6 10 -24 -2z"/>
<path d="M2590 4480 c0 -5 5 -10 11 -10 5 0 7 5 4 10 -3 6 -8 10 -11 10 -2 0
-4 -4 -4 -10z"/>
<path d="M2670 4481 c0 -6 4 -13 10 -16 6 -3 7 1 4 9 -7 18 -14 21 -14 7z"/>
<path d="M2264 4442 c4 -3 14 -7 22 -8 9 -1 13 0 10 4 -4 3 -14 7 -22 8 -9 1
-13 0 -10 -4z"/>
<path d="M2330 4406 c0 -2 7 -7 16 -10 8 -3 12 -2 9 4 -6 10 -25 14 -25 6z"/>
<path d="M2296 4382 c-3 -5 1 -9 9 -9 8 0 12 4 9 9 -3 4 -7 8 -9 8 -2 0 -6 -4
-9 -8z"/>
<path d="M2549 4323 c-13 -16 -12 -17 4 -4 9 7 17 15 17 17 0 8 -8 3 -21 -13z"/>
<path d="M2433 4315 c0 -8 4 -12 9 -9 5 3 6 10 3 15 -9 13 -12 11 -12 -6z"/>
<path d="M2255 4300 c-3 -5 -1 -10 4 -10 6 0 11 5 11 10 0 6 -2 10 -4 10 -3 0
-8 -4 -11 -10z"/>
<path d="M2290 4299 c0 -5 5 -7 10 -4 6 3 10 8 10 11 0 2 -4 4 -10 4 -5 0 -10
-5 -10 -11z"/>
<path d="M2375 4301 c-3 -5 -2 -12 3 -15 5 -3 9 1 9 9 0 17 -3 19 -12 6z"/>
<path d="M2493 4225 c0 -8 4 -12 9 -9 5 3 6 10 3 15 -9 13 -12 11 -12 -6z"/>
<path d="M2330 4220 c0 -5 5 -10 11 -10 5 0 7 5 4 10 -3 6 -8 10 -11 10 -2 0
-4 -4 -4 -10z"/>
<path d="M2366 4218 c3 -5 10 -6 15 -3 13 9 11 12 -6 12 -8 0 -12 -4 -9 -9z"/>
<path d="M2415 4220 c-3 -5 -1 -10 4 -10 6 0 11 5 11 10 0 6 -2 10 -4 10 -3 0
-8 -4 -11 -10z"/>
<path d="M2670 4220 c0 -5 5 -10 11 -10 5 0 7 5 4 10 -3 6 -8 10 -11 10 -2 0
-4 -4 -4 -10z"/>
<path d="M1346 4198 c3 -5 10 -6 15 -3 13 9 11 12 -6 12 -8 0 -12 -4 -9 -9z"/>
<path d="M2599 4193 c-13 -16 -12 -17 4 -4 16 13 21 21 13 21 -2 0 -10 -8 -17
-17z"/>
<path d="M2234 4176 c1 -8 5 -18 8 -22 4 -3 5 1 4 10 -1 8 -5 18 -8 22 -4 3
-5 -1 -4 -10z"/>
<path d="M2330 4179 c0 -5 5 -7 10 -4 6 3 10 8 10 11 0 2 -4 4 -10 4 -5 0 -10
-5 -10 -11z"/>
<path d="M2370 4180 c0 -5 5 -10 11 -10 5 0 7 5 4 10 -3 6 -8 10 -11 10 -2 0
-4 -4 -4 -10z"/>
<path d="M2415 4140 c3 -5 8 -10 11 -10 2 0 4 5 4 10 0 6 -5 10 -11 10 -5 0
-7 -4 -4 -10z"/>
<path d="M2450 4140 c0 -5 5 -10 11 -10 5 0 7 5 4 10 -3 6 -8 10 -11 10 -2 0
-4 -4 -4 -10z"/>
<path d="M2486 4138 c3 -5 10 -6 15 -3 13 9 11 12 -6 12 -8 0 -12 -4 -9 -9z"/>
<path d="M2535 4140 c-3 -5 -1 -10 4 -10 6 0 11 5 11 10 0 6 -2 10 -4 10 -3 0
-8 -4 -11 -10z"/>
<path d="M2575 4140 c3 -5 8 -10 11 -10 2 0 4 5 4 10 0 6 -5 10 -11 10 -5 0
-7 -4 -4 -10z"/>
<path d="M2266 4122 c-3 -5 1 -9 9 -9 8 0 15 4 15 9 0 4 -4 8 -9 8 -6 0 -12
-4 -15 -8z"/>
<path d="M2335 4121 c-3 -5 -2 -12 3 -15 5 -3 9 1 9 9 0 17 -3 19 -12 6z"/>
<path d="M2469 4083 c-13 -16 -12 -17 4 -4 16 13 21 21 13 21 -2 0 -10 -8 -17
-17z"/>
<path d="M2286 4078 c3 -5 10 -6 15 -3 13 9 11 12 -6 12 -8 0 -12 -4 -9 -9z"/>
<path d="M2530 4060 c0 -5 5 -10 11 -10 5 0 7 5 4 10 -3 6 -8 10 -11 10 -2 0
-4 -4 -4 -10z"/>
<path d="M2229 4043 c-13 -16 -12 -17 4 -4 9 7 17 15 17 17 0 8 -8 3 -21 -13z"/>
<path d="M2270 4036 c0 -2 8 -10 18 -17 15 -13 16 -12 3 4 -13 16 -21 21 -21
13z"/>
<path d="M2350 4001 c0 -6 4 -13 10 -16 6 -3 7 1 4 9 -7 18 -14 21 -14 7z"/>
<path d="M2456 4002 c-3 -4 4 -9 15 -9 23 -2 25 3 4 10 -8 4 -16 3 -19 -1z"/>
<path d="M2269 3983 c-13 -16 -12 -17 4 -4 16 13 21 21 13 21 -2 0 -10 -8 -17
-17z"/>
<path d="M2390 3980 c0 -5 5 -10 11 -10 5 0 7 5 4 10 -3 6 -8 10 -11 10 -2 0
-4 -4 -4 -10z"/>
<path d="M2215 3971 c-3 -5 -2 -12 3 -15 5 -3 9 1 9 9 0 17 -3 19 -12 6z"/>
<path d="M2289 3963 c-13 -16 -12 -17 4 -4 16 13 21 21 13 21 -2 0 -10 -8 -17
-17z"/>
<path d="M2345 3960 c-3 -6 1 -7 9 -4 18 7 21 14 7 14 -6 0 -13 -4 -16 -10z"/>
<path d="M2309 3943 c-13 -16 -12 -17 4 -4 9 7 17 15 17 17 0 8 -8 3 -21 -13z"/>
<path d="M3035 3941 c-3 -5 -2 -12 3 -15 5 -3 9 1 9 9 0 17 -3 19 -12 6z"/>
<path d="M2275 3930 c-4 -6 -10 -8 -14 -6 -4 3 -8 -1 -8 -9 0 -13 4 -12 19 2
18 16 22 23 14 23 -3 0 -8 -5 -11 -10z"/>
<path d="M2329 3923 c-13 -16 -12 -17 4 -4 16 13 21 21 13 21 -2 0 -10 -8 -17
-17z"/>
<path d="M2357 3912 c-15 -16 -15 -19 -2 -19 8 0 13 3 10 5 -3 3 0 11 6 19 17
20 5 16 -14 -5z"/>
<path d="M2966 3902 c-3 -5 1 -9 9 -9 8 0 12 4 9 9 -3 4 -7 8 -9 8 -2 0 -6 -4
-9 -8z"/>
<path d="M2230 3886 c0 -2 7 -7 16 -10 8 -3 12 -2 9 4 -6 10 -25 14 -25 6z"/>
<path d="M2355 3861 c-3 -5 -2 -12 3 -15 5 -3 9 1 9 9 0 17 -3 19 -12 6z"/>
<path d="M2890 3859 c0 -5 5 -7 10 -4 6 3 10 8 10 11 0 2 -4 4 -10 4 -5 0 -10
-5 -10 -11z"/>
<path d="M2926 3862 c-3 -5 1 -9 9 -9 8 0 12 4 9 9 -3 4 -7 8 -9 8 -2 0 -6 -4
-9 -8z"/>
<path d="M2226 3840 c5 -8 9 -21 10 -28 2 -8 5 -17 8 -20 4 -3 5 4 3 16 -2 12
-9 28 -17 35 -10 10 -11 9 -4 -3z"/>
<path d="M2306 3817 c3 -10 9 -15 12 -12 3 3 0 11 -7 18 -10 9 -11 8 -5 -6z"/>
<path d="M3010 3799 c0 -5 5 -7 10 -4 6 3 10 8 10 11 0 2 -4 4 -10 4 -5 0 -10
-5 -10 -11z"/>
<path d="M2205 3760 c-3 -6 1 -7 9 -4 18 7 21 14 7 14 -6 0 -13 -4 -16 -10z"/>
<path d="M3010 3760 c0 -5 5 -10 11 -10 5 0 7 5 4 10 -3 6 -8 10 -11 10 -2 0
-4 -4 -4 -10z"/>
<path d="M2214 3739 c-4 -7 -3 -9 4 -5 5 3 12 0 15 -6 2 -7 7 -10 11 -7 4 3 0
12 -8 18 -11 9 -16 9 -22 0z"/>
<path d="M2880 3720 c-9 -6 -10 -10 -3 -10 6 0 15 5 18 10 8 12 4 12 -15 0z"/>
<path d="M2973 3689 c-2 -23 3 -25 10 -4 4 8 3 16 -1 19 -4 3 -9 -4 -9 -15z"/>
<path d="M1486 3618 c3 -5 10 -6 15 -3 13 9 11 12 -6 12 -8 0 -12 -4 -9 -9z"/>
<path d="M3016 3618 c3 -5 10 -6 15 -3 13 9 11 12 -6 12 -8 0 -12 -4 -9 -9z"/>
<path d="M3055 3600 c3 -5 8 -10 11 -10 2 0 4 5 4 10 0 6 -5 10 -11 10 -5 0
-7 -4 -4 -10z"/>
<path d="M1494 3516 c1 -8 5 -18 8 -22 4 -3 5 1 4 10 -1 8 -5 18 -8 22 -4 3
-5 -1 -4 -10z"/>
<path d="M2210 3516 c0 -2 7 -7 16 -10 8 -3 12 -2 9 4 -6 10 -25 14 -25 6z"/>
<path d="M3075 3511 c-3 -5 -2 -12 3 -15 5 -3 9 1 9 9 0 17 -3 19 -12 6z"/>
<path d="M3140 3440 c-9 -6 -10 -10 -3 -10 6 0 15 5 18 10 8 12 4 12 -15 0z"/>
<path d="M2270 3420 c0 -5 5 -10 10 -10 6 0 10 5 10 10 0 6 -4 10 -10 10 -5 0
-10 -4 -10 -10z"/>
<path d="M1480 3380 c-12 -7 -10 -9 7 -7 12 0 19 5 17 9 -6 10 -6 10 -24 -2z"/>
<path d="M3165 3360 c-3 -6 1 -7 9 -4 18 7 21 14 7 14 -6 0 -13 -4 -16 -10z"/>
<path d="M2270 3349 c-12 -8 -10 -9 9 -4 17 5 22 4 16 -5 -5 -9 -4 -11 4 -6 6
4 9 12 6 17 -8 12 -16 11 -35 -2z"/>
<path d="M2316 3333 c-6 -14 -5 -15 5 -6 7 7 10 15 7 18 -3 3 -9 -2 -12 -12z"/>
<path d="M2360 3329 c0 -5 -4 -8 -9 -4 -5 3 -12 1 -15 -4 -4 -5 2 -8 11 -7 15
3 33 26 19 26 -3 0 -6 -5 -6 -11z"/>
<path d="M2255 3320 c3 -5 8 -10 11 -10 2 0 4 5 4 10 0 6 -5 10 -11 10 -5 0
-7 -4 -4 -10z"/>
<path d="M2220 3306 c0 -2 7 -6 15 -10 8 -3 15 -1 15 4 0 6 -7 10 -15 10 -8 0
-15 -2 -15 -4z"/>
<path d="M2260 3294 c0 -13 18 -39 24 -34 2 3 -2 14 -10 24 -8 11 -14 16 -14
10z"/>
<path d="M2360 3275 c-11 -13 -10 -14 4 -9 9 3 16 10 16 15 0 13 -6 11 -20 -6z"/>
<path d="M2234 3253 c21 -25 36 -30 36 -11 0 6 -3 8 -7 5 -3 -4 -16 1 -27 10
-21 18 -21 18 -2 -4z"/>
<path d="M3275 3249 c-4 -6 -5 -12 -2 -15 2 -3 7 2 10 11 7 17 1 20 -8 4z"/>
<path d="M2385 3239 c-4 -6 -4 -13 -1 -16 3 -4 6 -1 6 6 0 7 5 9 10 6 6 -3 10
-1 10 4 0 14 -17 14 -25 0z"/>
<path d="M2416 3194 c-4 -11 -1 -12 12 -6 9 5 24 7 32 4 8 -2 12 -2 9 2 -13
14 -48 14 -53 0z"/>
<path d="M2429 3143 c-13 -16 -12 -17 4 -4 9 7 17 15 17 17 0 8 -8 3 -21 -13z"/>
<path d="M2254 3120 c0 -12 4 -16 11 -11 5 5 18 7 28 6 9 -2 17 1 17 7 0 5 -6
8 -12 5 -7 -2 -20 -1 -28 4 -11 5 -16 2 -16 -11z"/>
<path d="M2330 3130 c-9 -6 -10 -10 -3 -10 6 0 15 5 18 10 8 12 4 12 -15 0z"/>
<path d="M2493 3118 c0 -13 1 -17 4 -10 3 6 10 9 16 5 7 -4 6 1 -2 10 -17 21
-17 21 -18 -5z"/>
<path d="M2440 3125 c0 -2 6 -8 13 -14 10 -8 14 -7 14 2 0 8 -6 14 -14 14 -7
0 -13 -1 -13 -2z"/>
<path d="M2520 3095 c-7 -8 -16 -13 -20 -10 -5 3 -11 2 -14 -3 -2 -4 6 -8 19
-8 13 0 23 5 22 11 -1 5 4 9 11 7 8 -1 11 2 7 8 -8 13 -10 13 -25 -5z"/>
<path d="M2456 3073 c-6 -14 -5 -15 5 -6 7 7 10 15 7 18 -3 3 -9 -2 -12 -12z"/>
<path d="M2353 3053 c0 -9 4 -10 14 -2 7 6 13 12 13 14 0 1 -6 2 -13 2 -8 0
-14 -6 -14 -14z"/>
<path d="M2395 3062 c3 -3 -3 -15 -12 -26 -13 -15 -10 -14 10 3 32 29 31 28
12 28 -8 0 -13 -3 -10 -5z"/>
<path d="M2545 3060 c-3 -6 1 -7 9 -4 18 7 21 14 7 14 -6 0 -13 -4 -16 -10z"/>
<path d="M2254 3041 c0 -11 5 -17 13 -14 10 4 11 9 2 19 -15 18 -15 18 -15 -5z"/>
<path d="M2495 3050 c-4 -6 -10 -8 -15 -5 -4 3 -7 -2 -6 -10 1 -8 4 -16 7 -17
2 -2 3 -1 1 1 -1 2 5 13 15 23 9 10 13 18 10 18 -3 0 -9 -5 -12 -10z"/>
<path d="M2310 3046 c0 -2 7 -7 16 -10 8 -3 12 -2 9 4 -6 10 -25 14 -25 6z"/>
<path d="M2433 3033 c0 -11 7 -20 14 -20 10 0 10 4 1 16 -7 9 -13 18 -15 20
-1 2 -1 -5 0 -16z"/>
<path d="M2279 3013 c-13 -16 -12 -17 4 -4 9 7 17 15 17 17 0 8 -8 3 -21 -13z"/>
<path d="M2299 2993 c-13 -16 -12 -17 4 -4 9 7 17 15 17 17 0 8 -8 3 -21 -13z"/>
<path d="M2376 3002 c-3 -5 1 -9 9 -9 8 0 12 4 9 9 -3 4 -7 8 -9 8 -2 0 -6 -4
-9 -8z"/>
<path d="M2526 2998 c3 -5 10 -6 15 -3 13 9 11 12 -6 12 -8 0 -12 -4 -9 -9z"/>
<path d="M2443 2978 c-11 -19 -12 -37 -3 -43 5 -3 7 3 5 12 -1 10 2 24 8 31 5
6 7 12 4 12 -3 0 -9 -6 -14 -12z"/>
<path d="M2553 2975 c0 -8 4 -12 9 -9 4 3 8 9 8 15 0 5 -4 9 -8 9 -5 0 -9 -7
-9 -15z"/>
<path d="M2473 2966 c0 -15 22 -15 34 0 4 5 4 6 -1 2 -5 -4 -14 -3 -21 2 -8 7
-12 5 -12 -4z"/>
<path d="M2220 2965 c0 -2 6 -8 13 -14 10 -8 14 -7 14 2 0 8 -6 14 -14 14 -7
0 -13 -1 -13 -2z"/>
<path d="M2593 2955 c0 -8 4 -12 9 -9 5 3 6 10 3 15 -9 13 -12 11 -12 -6z"/>
<path d="M2349 2943 c-13 -16 -12 -17 4 -4 9 7 17 15 17 17 0 8 -8 3 -21 -13z"/>
<path d="M2270 2936 c7 -7 13 -7 20 0 6 6 3 10 -10 10 -13 0 -16 -4 -10 -10z"/>
<path d="M2489 2923 c-13 -16 -12 -17 4 -4 9 7 17 15 17 17 0 8 -8 3 -21 -13z"/>
<path d="M2226 2922 c-3 -5 1 -9 9 -9 8 0 15 4 15 9 0 4 -4 8 -9 8 -6 0 -12
-4 -15 -8z"/>
<path d="M2387 2899 c7 -7 15 -10 18 -7 3 3 -2 9 -12 12 -14 6 -15 5 -6 -5z"/>
<path d="M2330 2879 c0 -5 5 -7 10 -4 6 3 10 8 10 11 0 2 -4 4 -10 4 -5 0 -10
-5 -10 -11z"/>
<path d="M2420 2886 c0 -2 8 -10 18 -17 15 -13 16 -12 3 4 -13 16 -21 21 -21
13z"/>
<path d="M2719 2878 c-5 -19 -8 -50 -4 -46 7 7 15 48 9 48 -2 0 -4 -1 -5 -2z"/>
<path d="M2535 2820 c3 -5 8 -10 11 -10 2 0 4 5 4 10 0 6 -5 10 -11 10 -5 0
-7 -4 -4 -10z"/>
<path d="M2575 2820 c3 -5 8 -10 11 -10 2 0 4 5 4 10 0 6 -5 10 -11 10 -5 0
-7 -4 -4 -10z"/>
<path d="M2610 2819 c0 -5 5 -7 10 -4 6 3 10 8 10 11 0 2 -4 4 -10 4 -5 0 -10
-5 -10 -11z"/>
<path d="M2530 2779 c0 -5 5 -7 10 -4 6 3 10 8 10 11 0 2 -4 4 -10 4 -5 0 -10
-5 -10 -11z"/>
<path d="M2610 2779 c0 -5 5 -7 10 -4 6 3 10 8 10 11 0 2 -4 4 -10 4 -5 0 -10
-5 -10 -11z"/>
<path d="M2735 2780 c3 -5 8 -10 11 -10 2 0 4 5 4 10 0 6 -5 10 -11 10 -5 0
-7 -4 -4 -10z"/>
<path d="M2230 2760 c0 -5 5 -10 10 -10 6 0 10 5 10 10 0 6 -4 10 -10 10 -5 0
-10 -4 -10 -10z"/>
<path d="M2270 2761 c0 -6 4 -13 10 -16 6 -3 7 1 4 9 -7 18 -14 21 -14 7z"/>
<path d="M1496 2742 c-3 -5 1 -9 9 -9 8 0 12 4 9 9 -3 4 -7 8 -9 8 -2 0 -6 -4
-9 -8z"/>
<path d="M2414 2742 c4 -3 14 -7 22 -8 9 -1 13 0 10 4 -4 3 -14 7 -22 8 -9 1
-13 0 -10 -4z"/>
<path d="M2475 2700 c3 -5 8 -10 11 -10 2 0 4 5 4 10 0 6 -5 10 -11 10 -5 0
-7 -4 -4 -10z"/>
<path d="M2730 2699 c0 -5 5 -7 10 -4 6 3 10 8 10 11 0 2 -4 4 -10 4 -5 0 -10
-5 -10 -11z"/>
<path d="M2775 2700 c-3 -5 -1 -10 4 -10 6 0 11 5 11 10 0 6 -2 10 -4 10 -3 0
-8 -4 -11 -10z"/>
<path d="M2605 2640 c-3 -6 1 -7 9 -4 18 7 21 14 7 14 -6 0 -13 -4 -16 -10z"/>
<path d="M2334 2622 c4 -3 14 -7 22 -8 9 -1 13 0 10 4 -4 3 -14 7 -22 8 -9 1
-13 0 -10 -4z"/>
<path d="M2816 2621 c-3 -5 2 -15 12 -22 15 -12 16 -12 5 2 -7 9 -10 19 -6 22
3 4 4 7 0 7 -3 0 -8 -4 -11 -9z"/>
<path d="M2411 2607 c2 -1 13 -9 24 -17 19 -14 19 -14 6 3 -7 9 -18 17 -24 17
-6 0 -8 -1 -6 -3z"/>
<path d="M2866 2598 c3 -5 10 -6 15 -3 13 9 11 12 -6 12 -8 0 -12 -4 -9 -9z"/>
<path d="M2295 2580 c3 -5 8 -10 11 -10 2 0 4 5 4 10 0 6 -5 10 -11 10 -5 0
-7 -4 -4 -10z"/>
<path d="M2830 2545 c0 -7 30 -13 34 -7 3 4 -4 9 -15 9 -10 1 -19 0 -19 -2z"/>
<path d="M2895 2511 c-3 -5 -2 -12 3 -15 5 -3 9 1 9 9 0 17 -3 19 -12 6z"/>
<path d="M2250 2500 c0 -5 5 -10 11 -10 5 0 7 5 4 10 -3 6 -8 10 -11 10 -2 0
-4 -4 -4 -10z"/>
<path d="M2230 2461 c0 -6 4 -13 10 -16 6 -3 7 1 4 9 -7 18 -14 21 -14 7z"/>
<path d="M1496 2422 c-3 -5 1 -9 9 -9 8 0 12 4 9 9 -3 4 -7 8 -9 8 -2 0 -6 -4
-9 -8z"/>
<path d="M2966 2422 c-3 -5 1 -9 9 -9 8 0 12 4 9 9 -3 4 -7 8 -9 8 -2 0 -6 -4
-9 -8z"/>
<path d="M2355 2400 c3 -5 8 -10 11 -10 2 0 4 5 4 10 0 6 -5 10 -11 10 -5 0
-7 -4 -4 -10z"/>
<path d="M3014 2396 c1 -8 5 -18 8 -22 4 -3 5 1 4 10 -1 8 -5 18 -8 22 -4 3
-5 -1 -4 -10z"/>
<path d="M2259 2388 c-5 -18 -6 -38 -1 -34 7 8 12 36 6 36 -2 0 -4 -1 -5 -2z"/>
<path d="M2835 2320 c3 -5 8 -10 11 -10 2 0 4 5 4 10 0 6 -5 10 -11 10 -5 0
-7 -4 -4 -10z"/>
<path d="M3139 2288 c-5 -18 -6 -38 -1 -34 7 8 12 36 6 36 -2 0 -4 -1 -5 -2z"/>
<path d="M2259 2268 c-5 -18 -6 -38 -1 -34 7 8 12 36 6 36 -2 0 -4 -1 -5 -2z"/>
<path d="M3115 2229 c-4 -6 -5 -12 -2 -15 2 -3 7 2 10 11 7 17 1 20 -8 4z"/>
<path d="M3154 2222 c4 -3 14 -7 22 -8 9 -1 13 0 10 4 -4 3 -14 7 -22 8 -9 1
-13 0 -10 -4z"/>
<path d="M2265 2200 c-3 -6 1 -7 9 -4 18 7 21 14 7 14 -6 0 -13 -4 -16 -10z"/>
<path d="M3154 2182 c4 -3 14 -7 22 -8 9 -1 13 0 10 4 -4 3 -14 7 -22 8 -9 1
-13 0 -10 -4z"/>
<path d="M3116 2162 c-3 -5 1 -9 9 -9 8 0 12 4 9 9 -3 4 -7 8 -9 8 -2 0 -6 -4
-9 -8z"/>
<path d="M3253 2111 c0 -11 5 -18 9 -15 4 3 5 11 1 19 -7 21 -12 19 -10 -4z"/>
<path d="M4153 2115 c0 -8 4 -12 9 -9 5 3 6 10 3 15 -9 13 -12 11 -12 -6z"/>
<path d="M1496 2102 c-3 -5 1 -9 9 -9 8 0 12 4 9 9 -3 4 -7 8 -9 8 -2 0 -6 -4
-9 -8z"/>
<path d="M3290 2059 c0 -5 5 -7 10 -4 6 3 10 8 10 11 0 2 -4 4 -10 4 -5 0 -10
-5 -10 -11z"/>
<path d="M3306 2005 c-11 -8 -15 -15 -9 -15 6 0 16 7 23 15 16 19 11 19 -14 0z"/>
<path d="M3370 1979 c0 -5 5 -7 10 -4 6 3 10 8 10 11 0 2 -4 4 -10 4 -5 0 -10
-5 -10 -11z"/>
<path d="M3333 1929 c-2 -23 3 -25 10 -4 4 8 3 16 -1 19 -4 3 -9 -4 -9 -15z"/>
<path d="M2247 1879 c7 -7 15 -10 18 -7 3 3 -2 9 -12 12 -14 6 -15 5 -6 -5z"/>
<path d="M3430 1879 c0 -5 5 -7 10 -4 6 3 10 8 10 11 0 2 -4 4 -10 4 -5 0 -10
-5 -10 -11z"/>
<path d="M3465 1840 c-3 -6 1 -7 9 -4 18 7 21 14 7 14 -6 0 -13 -4 -16 -10z"/>
<path d="M3475 1740 c3 -5 8 -10 11 -10 2 0 4 5 4 10 0 6 -5 10 -11 10 -5 0
-7 -4 -4 -10z"/>
<path d="M4666 1722 c-3 -5 1 -9 9 -9 8 0 12 4 9 9 -3 4 -7 8 -9 8 -2 0 -6 -4
-9 -8z"/>
<path d="M1435 1640 c-3 -5 -1 -10 4 -10 6 0 11 5 11 10 0 6 -2 10 -4 10 -3 0
-8 -4 -11 -10z"/>
<path d="M4587 1599 c7 -7 15 -10 18 -7 3 3 -2 9 -12 12 -14 6 -15 5 -6 -5z"/>
<path d="M3656 1578 c3 -5 10 -6 15 -3 13 9 11 12 -6 12 -8 0 -12 -4 -9 -9z"/>
<path d="M1513 1515 c0 -8 4 -12 9 -9 5 3 6 10 3 15 -9 13 -12 11 -12 -6z"/>
<path d="M4825 1480 c-3 -6 1 -7 9 -4 18 7 21 14 7 14 -6 0 -13 -4 -16 -10z"/>
<path d="M1493 1465 c0 -8 4 -12 9 -9 5 3 6 10 3 15 -9 13 -12 11 -12 -6z"/>
<path d="M3735 1471 c-3 -5 -2 -12 3 -15 5 -3 9 1 9 9 0 17 -3 19 -12 6z"/>
<path d="M3754 1422 c4 -3 14 -7 22 -8 9 -1 13 0 10 4 -4 3 -14 7 -22 8 -9 1
-13 0 -10 -4z"/>
<path d="M3774 1382 c4 -3 14 -7 22 -8 9 -1 13 0 10 4 -4 3 -14 7 -22 8 -9 1
-13 0 -10 -4z"/>
<path d="M3476 1367 c3 -10 9 -15 12 -12 3 3 0 11 -7 18 -10 9 -11 8 -5 -6z"/>
<path d="M2250 1366 c0 -2 7 -7 16 -10 8 -3 12 -2 9 4 -6 10 -25 14 -25 6z"/>
<path d="M3814 1336 c1 -8 5 -18 8 -22 4 -3 5 1 4 10 -1 8 -5 18 -8 22 -4 3
-5 -1 -4 -10z"/>
<path d="M3850 1339 c0 -5 5 -7 10 -4 6 3 10 8 10 11 0 2 -4 4 -10 4 -5 0 -10
-5 -10 -11z"/>
<path d="M3855 1300 c-3 -5 -1 -10 4 -10 6 0 11 5 11 10 0 6 -2 10 -4 10 -3 0
-8 -4 -11 -10z"/>
<path d="M3866 1245 c-11 -8 -15 -15 -9 -15 6 0 16 7 23 15 16 19 11 19 -14 0z"/>
<path d="M3915 1211 c-3 -5 -2 -12 3 -15 5 -3 9 1 9 9 0 17 -3 19 -12 6z"/>
<path d="M3876 1187 c3 -10 9 -15 12 -12 3 3 0 11 -7 18 -10 9 -11 8 -5 -6z"/>
<path d="M2235 1151 c-3 -5 -2 -12 3 -15 5 -3 9 1 9 9 0 17 -3 19 -12 6z"/>
<path d="M3971 1147 c2 -1 13 -9 24 -17 19 -14 19 -14 6 3 -7 9 -18 17 -24 17
-6 0 -8 -1 -6 -3z"/>
<path d="M4986 1125 c-11 -8 -15 -15 -9 -15 6 0 16 7 23 15 16 19 11 19 -14 0z"/>
<path d="M4059 1048 c-5 -18 -6 -38 -1 -34 7 8 12 36 6 36 -2 0 -4 -1 -5 -2z"/>
<path d="M5067 979 c7 -7 15 -10 18 -7 3 3 -2 9 -12 12 -14 6 -15 5 -6 -5z"/>
<path d="M4080 960 c-9 -6 -10 -10 -3 -10 6 0 15 5 18 10 8 12 4 12 -15 0z"/>
<path d="M5236 953 c-6 -14 -5 -15 5 -6 7 7 10 15 7 18 -3 3 -9 -2 -12 -12z"/>
<path d="M4114 942 c4 -3 14 -7 22 -8 9 -1 13 0 10 4 -4 3 -14 7 -22 8 -9 1
-13 0 -10 -4z"/>
<path d="M5155 920 c-3 -5 -1 -10 4 -10 6 0 11 5 11 10 0 6 -2 10 -4 10 -3 0
-8 -4 -11 -10z"/>
<path d="M4134 898 c-4 -7 -4 -10 1 -6 4 4 15 2 24 -5 14 -11 14 -10 2 6 -16
20 -18 21 -27 5z"/>
<path d="M1480 880 c8 -5 20 -10 25 -10 6 0 3 5 -5 10 -8 5 -19 10 -25 10 -5
0 -3 -5 5 -10z"/>
<path d="M2239 873 c-13 -16 -12 -17 4 -4 9 7 17 15 17 17 0 8 -8 3 -21 -13z"/>
<path d="M5269 843 c-13 -16 -12 -17 4 -4 16 13 21 21 13 21 -2 0 -10 -8 -17
-17z"/>
<path d="M1355 840 c3 -5 8 -10 11 -10 2 0 4 5 4 10 0 6 -5 10 -11 10 -5 0 -7
-4 -4 -10z"/>
<path d="M4255 820 c3 -5 8 -10 11 -10 2 0 4 5 4 10 0 6 -5 10 -11 10 -5 0 -7
-4 -4 -10z"/>
<path d="M1476 793 c-6 -14 -5 -15 5 -6 7 7 10 15 7 18 -3 3 -9 -2 -12 -12z"/>
<path d="M4230 779 c0 -5 5 -7 10 -4 6 3 10 8 10 11 0 2 -4 4 -10 4 -5 0 -10
-5 -10 -11z"/>
<path d="M2235 761 c-3 -5 -2 -12 3 -15 5 -3 9 1 9 9 0 17 -3 19 -12 6z"/>
<path d="M4289 757 c6 -8 7 -18 3 -22 -4 -5 -1 -5 6 -1 10 6 10 11 1 22 -6 8
-14 14 -16 14 -3 0 0 -6 6 -13z"/>
<path d="M4413 631 c0 -11 5 -18 9 -15 4 3 5 11 1 19 -7 21 -12 19 -10 -4z"/>
<path d="M1476 593 c-6 -14 -5 -15 5 -6 7 7 10 15 7 18 -3 3 -9 -2 -12 -12z"/>
<path d="M4413 575 c0 -8 4 -12 9 -9 5 3 6 10 3 15 -9 13 -12 11 -12 -6z"/>
<path d="M4494 516 c1 -8 5 -18 8 -22 4 -3 5 1 4 10 -1 8 -5 18 -8 22 -4 3 -5
-1 -4 -10z"/>
<path d="M4575 431 c-3 -5 -2 -12 3 -15 5 -3 9 1 9 9 0 17 -3 19 -12 6z"/>
<path d="M2236 378 c3 -5 10 -6 15 -3 13 9 11 12 -6 12 -8 0 -12 -4 -9 -9z"/>
<path d="M4875 249 c-4 -6 -5 -12 -2 -15 2 -3 7 2 10 11 7 17 1 20 -8 4z"/>
</g>
</svg>
