<svg xmlns="http://www.w3.org/2000/svg" width="35" height="35" fill="none" xmlns:v="https://vecta.io/nano"><g clip-path="url(#A)"><path d="M27.344 13.125H26.25V8.75A8.76 8.76 0 0 0 17.5 0a8.76 8.76 0 0 0-8.75 8.75v4.375H7.656c-1.808 0-3.28 1.472-3.28 3.28V31.72c0 1.8 1.473 3.28 3.28 3.28h19.688c1.808 0 3.28-1.47 3.28-3.28V16.406c0-1.8-1.473-3.28-3.28-3.28zM11.667 8.75A5.84 5.84 0 0 1 17.5 2.917a5.84 5.84 0 0 1 5.833 5.833v4.375H11.667V8.75zm7.292 15.636v3.322a1.46 1.46 0 0 1-1.458 1.458 1.46 1.46 0 0 1-1.458-1.458v-3.322c-.868-.506-1.458-1.436-1.458-2.51a2.92 2.92 0 0 1 2.917-2.917 2.92 2.92 0 0 1 2.917 2.917c0 1.075-.59 2.005-1.458 2.51z" fill="#000"/></g><defs><clipPath id="A"><path fill="#fff" d="M0 0h35v35H0z"/></clipPath></defs></svg>