<svg xmlns="http://www.w3.org/2000/svg" width="28" height="27" fill="none" xmlns:v="https://vecta.io/nano"><path d="M13.8 8.054c-3.048 0-5.527 2.404-5.527 5.36s2.48 5.36 5.527 5.36 5.527-2.404 5.527-5.36-2.48-5.36-5.527-5.36zm0 0c-3.048 0-5.527 2.404-5.527 5.36s2.48 5.36 5.527 5.36 5.527-2.404 5.527-5.36-2.48-5.36-5.527-5.36zM23.325.296H4.272C2.093.296.324 2.01.324 4.124V22.6c0 2.113 1.77 3.828 3.948 3.828h19.054c2.18 0 3.948-1.715 3.948-3.828V4.124c0-2.113-1.768-3.828-3.948-3.828zM13.8 20.303c-3.916 0-7.106-3.093-7.106-6.9s3.2-6.9 7.106-6.9 7.106 3.093 7.106 6.9-3.2 6.9-7.106 6.9zm8.685-13.78c-.87 0-1.58-.69-1.58-1.53s.7-1.53 1.58-1.53 1.58.69 1.58 1.53-.7 1.53-1.58 1.53zM13.8 8.054c-3.048 0-5.527 2.404-5.527 5.36s2.48 5.36 5.527 5.36 5.527-2.404 5.527-5.36-2.48-5.36-5.527-5.36zm0 0c-3.048 0-5.527 2.404-5.527 5.36s2.48 5.36 5.527 5.36 5.527-2.404 5.527-5.36-2.48-5.36-5.527-5.36zm0 0c-3.048 0-5.527 2.404-5.527 5.36s2.48 5.36 5.527 5.36 5.527-2.404 5.527-5.36-2.48-5.36-5.527-5.36z" fill="#000"/></svg>
