<svg xmlns="http://www.w3.org/2000/svg" xmlns:xlink="http://www.w3.org/1999/xlink" width="34" height="19" fill="none" xmlns:v="https://vecta.io/nano"><use xlink:href="#C" fill-rule="evenodd" fill="#000"/><mask id="A" mask-type="alpha" maskUnits="userSpaceOnUse" x="0" y="0" width="34" height="19"><use xlink:href="#C" fill-rule="evenodd" fill="#fff"/></mask><g mask="url(#A)"><path fill="#000" d="M.006-7.665H33.69v31.44H.006z"/></g><defs ><path id="C" d="M16.487 18.087H18.5s.607-.062.918-.376c.285-.288.277-.827.277-.827s-.04-2.527 1.215-2.898c1.237-.367 2.822 2.44 4.506 3.52 1.273.818 2.24.64 2.24.64l4.497-.058s2.353-.136 1.237-1.866c-.09-.143-.65-1.28-3.345-3.62-2.82-2.447-2.443-2.052.956-6.285 2.07-2.58 2.896-4.152 2.64-4.827-.248-.642-1.768-.47-1.768-.47l-5.067.03s-.375-.05-.654.106c-.273.153-.446.5-.446.5s-.802 1.996-1.872 3.7c-2.255 3.583-3.157 3.77-3.526 3.55-.858-.52-.643-2.083-.643-3.194 0-3.47.563-4.916-1.096-5.3-.55-.125-.956-.206-2.363-.22C14.397.18 12.868.204 12 .6c-.576.263-1.02.852-.75.886.335.042 1.095.192 1.497.703.518.66.5 2.142.5 2.142s.3 4.085-.697 4.592c-.683.35-1.62-.363-3.63-3.61C7.9 3.648 7.113 1.81 7.113 1.81s-.15-.343-.417-.526C6.37 1.06 5.916.99 5.916.99l-4.812.03s-.723.02-.99.313c-.234.26-.018.802-.018.802s3.767 8.242 8.034 12.395c3.912 3.81 8.356 3.56 8.356 3.56z"/></defs></svg>
