<svg xmlns="http://www.w3.org/2000/svg" xmlns:xlink="http://www.w3.org/1999/xlink" width="32" height="22" fill="none" xmlns:v="https://vecta.io/nano"><use xlink:href="#C" fill-rule="evenodd" fill="#000"/><mask id="A" mask-type="alpha" maskUnits="userSpaceOnUse" x="0" y="0" width="32" height="22"><use xlink:href="#C" fill-rule="evenodd" fill="#000"/></mask><g mask="url(#A)"><path fill="#000" d="M-1.62-6.932h35.37v34.97H-1.62z"/></g><defs ><path id="C" d="M30.92 5.142s-.296-2.08-1.205-2.996C28.562.943 27.27.937 26.677.868 22.435.562 16.07.562 16.07.562h-.013S9.694.562 5.45.868c-.593.07-1.884.075-3.038 1.278-.91.916-1.204 2.996-1.204 2.996S.906 7.585.906 10.028v2.3a45.45 45.45 0 0 0 .303 4.886s.296 2.08 1.204 2.996c1.154 1.203 2.67 1.165 3.343 1.29 2.425.232 10.308.304 10.308.304s6.37-.01 10.613-.315c.592-.07 1.884-.076 3.037-1.28.91-.916 1.205-2.996 1.205-2.996s.303-2.442.303-4.886v-2.3c0-2.442-.303-4.886-.303-4.886zM13.54 15.55l-.001-8.743 7.58 4.386-7.578 4.356z"/></defs></svg>
